Coordinates
version=1
nRows=13
nColumns=40
inDegrees=yes

Units are S.I. units (second, meters, Newtons, ...)
Angles are in degrees.

endheader
time	pelvis_tilt	pelvis_list	pelvis_rotation	pelvis_tx	pelvis_ty	pelvis_tz	hip_flexion_r	hip_adduction_r	hip_rotation_r	knee_angle_r	knee_angle_r_beta	ankle_angle_r	subtalar_angle_r	mtp_angle_r	hip_flexion_l	hip_adduction_l	hip_rotation_l	knee_angle_l	knee_angle_l_beta	ankle_angle_l	subtalar_angle_l	mtp_angle_l	lumbar_extension	lumbar_bending	lumbar_rotation	arm_flex_r	arm_add_r	arm_rot_r	elbow_flex_r	pro_sup_r	wrist_flex_r	wrist_dev_r	arm_flex_l	arm_add_l	arm_rot_l	elbow_flex_l	pro_sup_l	wrist_flex_l	wrist_dev_l
     30.42000000	     -3.15316188	     -5.62147753	      0.51314640	      0.92765994	      0.93306791	      0.52209824	      9.29059213	      5.91421017	    -17.53083444	     11.43953770	     11.43953770	      7.41764393	      0.83684540	     -6.82885413	     33.04470510	    -13.10577777	      0.39767874	     56.39932493	     56.39932493	     10.58107760	    -18.60732713	     15.16354345	     -9.54997014	      6.63595787	      3.71476883	     22.16188301	    -15.40046073	     -2.24608446	     57.19705528	     45.19324689	      0.00000000	      0.00000000	      7.79796429	     -6.29624600	     -2.36733927	     27.19115492	     44.98598614	      0.00000000	      0.00000000
     30.43214286	     -3.30916097	     -5.56304033	      0.72918236	      0.92710795	      0.93307757	      0.52240000	      8.64298531	      5.96556541	    -17.65584566	     10.83221595	     10.83221595	      7.61886583	      1.13150064	     -6.96269001	     33.75235807	    -12.98229288	      0.13683920	     53.22198156	     53.22198156	     10.69836644	    -18.62871230	     15.13648503	     -9.37187155	      6.54236906	      3.50382760	     24.03765223	    -15.39492810	     -2.42465991	     58.63737389	     45.16308834	      0.00000000	      0.00000000	      6.52573571	     -6.36069039	     -2.24498481	     26.05672220	     44.96466583	      0.00000000	      0.00000000
     30.44428571	     -3.39785091	     -5.62884787	      0.94915535	      0.92659667	      0.93304116	      0.52269714	      7.86364457	      6.15775556	    -17.93566768	     10.09760882	     10.09760882	      7.74693881	      1.71820335	     -7.23816824	     34.18379846	    -12.95384748	     -0.10645791	     49.72765243	     49.72765243	     10.54050653	    -18.49630940	     14.59323686	     -9.31388827	      6.64288985	      3.41497954	     25.84166752	    -15.51818077	     -2.58795243	     60.55295102	     45.11880717	      0.00000000	      0.00000000	      5.40121285	     -6.34742498	     -2.03190989	     24.74960110	     44.94293513	      0.00000000	      0.00000000
     30.45642857	     -3.64768010	     -5.76527563	      1.10623434	      0.92596199	      0.93254810	      0.52301016	      7.54270519	      6.36556745	    -18.04341123	      9.88482591	      9.88482591	      8.00889659	      1.76958803	     -7.36493648	     34.67546610	    -12.95838408	     -0.32675118	     46.13807863	     46.13807863	     10.65117778	    -18.03833385	     14.86206311	     -9.04217576	      6.78701923	      3.82580546	     27.56317003	    -16.09638298	     -2.87286237	     61.42635557	     45.10955365	      0.00000000	      0.00000000	      4.27752809	     -6.21319350	     -1.99411900	     24.21999737	     44.92222249	      0.00000000	      0.00000000
     30.46857143	     -3.58235316	     -5.59354356	      1.29148038	      0.92570536	      0.93274475	      0.52303243	      6.53179070	      6.31493553	    -18.23005739	      9.05264571	      9.05264571	      8.20174301	      2.39657605	     -7.50314314	     34.41523344	    -12.49443893	     -0.53494880	     42.08438451	     42.08438451	     10.34690269	    -17.86624610	     14.86959194	     -9.16765483	      6.60504887	      3.55295947	     29.33320675	    -15.86768201	     -3.06642554	     63.25296699	     45.06573599	      0.00000000	      0.00000000	      3.07953742	     -6.34497773	     -1.84409135	     23.16906969	     44.89192727	      0.00000000	      0.00000000
     30.48071429	     -3.61955285	     -5.70415239	      1.49416620	      0.92551892	      0.93238048	      0.52300151	      5.72536281	      6.48367445	    -18.98132427	      8.39636972	      8.39636972	      8.34261082	      3.81320806	     -8.11162336	     34.19936577	    -12.33763590	     -0.67434350	     37.95236923	     37.95236923	      9.02790793	    -17.41147213	     11.79571381	     -9.17297470	      6.78559898	      4.11314359	     30.19036248	    -16.53516125	     -3.70186103	     66.32555549	     45.01508539	      0.00000000	      0.00000000	      2.41966693	     -6.24798755	     -1.05029580	     21.80722944	     44.81596143	      0.00000000	      0.00000000
     30.49285714	     -3.74584818	     -5.73124121	      1.62849771	      0.92521516	      0.93188407	      0.52292316	      5.18412922	      6.58582440	    -18.98889381	      8.02944934	      8.02944934	      8.62965753	      3.93595283	     -8.15416730	     34.12901473	    -12.07419177	     -0.80427409	     34.17131991	     34.17131991	      8.98288188	    -16.31557783	     12.18717236	     -9.04154535	      6.83474240	      4.23136968	     31.86350596	    -16.69524859	     -3.99270369	     67.28131031	     45.00464635	      0.00000000	      0.00000000	      1.28961168	     -6.24928862	     -0.95726318	     21.34924794	     44.78660645	      0.00000000	      0.00000000
     30.50500000	     -3.85250352	     -5.82794601	      1.77972974	      0.92501647	      0.93130864	      0.52267608	      4.60829104	      6.74609946	    -19.13834027	      7.64523151	      7.64523151	      8.90367136	      4.28131628	     -8.21707714	     34.02560349	    -11.86526409	     -0.91360096	     30.56316584	     30.56316584	      8.95682709	    -14.90076029	     12.45255441	     -8.92893615	      6.98135320	      4.29964511	     33.41302494	    -16.82796397	     -4.28047154	     68.27541563	     44.99197734	      0.00000000	      0.00000000	      0.15592778	     -6.26388787	     -0.86824912	     20.98245779	     44.75490349	      0.00000000	      0.00000000
     30.51714286	     -3.86706094	     -5.89860578	      1.94249074	      0.92501750	      0.93081812	      0.52231884	      3.89893558	      6.87253319	    -19.41754240	      7.23261288	      7.23261288	      9.22916220	      4.84516598	     -8.26325689	     33.80875264	    -11.66809876	     -1.20124081	     27.19291094	     27.19291094	      8.82501710	    -13.22249083	     12.56104985	     -8.90656392	      7.09665232	      4.29408846	     34.81834991	    -16.84243782	     -4.58454047	     69.36662334	     44.97698738	      0.00000000	      0.00000000	     -1.04162078	     -6.33392552	     -0.74988536	     20.75029979	     44.71466100	      0.00000000	      0.00000000
     30.52928571	     -3.97235328	     -6.01216909	      2.10574672	      0.92499362	      0.93013348	      0.52183042	      3.37396437	      7.01194825	    -19.65180713	      6.97329032	      6.97329032	      9.54635532	      5.29610841	     -8.29020037	     33.73848984	    -11.49150511	     -1.46817611	     24.16084783	     24.16084783	      8.64929430	    -11.39491520	     12.67477810	     -8.75182616	      7.23331744	      4.38681838	     36.12466636	    -16.97798977	     -4.88106006	     70.27960878	     44.96660719	      0.00000000	      0.00000000	     -2.11865432	     -6.31645763	     -0.65106833	     20.66262698	     44.67640341	      0.00000000	      0.00000000
     30.54142857	     -3.93821848	     -6.09029169	      2.27886598	      0.92518827	      0.92962584	      0.52111540	      2.65932696	      7.09479148	    -20.07637675	      6.69245737	      6.69245737	      9.97584050	      6.13355763	     -8.12848474	     33.53645293	    -11.32941498	     -2.06526619	     21.52013752	     21.52013752	      8.39471405	     -9.37145440	     12.32177648	     -8.78530157	      7.37355403	      4.32467759	     37.33100397	    -16.94430624	     -5.30773250	     71.44713994	     44.95626578	      0.00000000	      0.00000000	     -3.42047828	     -6.40940577	     -0.41501165	     20.98304274	     44.60521584	      0.00000000	      0.00000000
     30.55357143	     -4.10680100	     -6.23527817	      2.46240211	      0.92526063	      0.92880329	      0.52026940	      2.29930053	      7.22247579	    -20.24085444	      6.63024441	      6.63024441	     10.32549382	      6.27400863	     -8.11712129	     33.67459496	    -11.13548151	     -2.43542555	     19.39079879	     19.39079879	      8.03404256	     -7.97204411	     12.50260170	     -8.51097222	      7.57905191	      4.47678028	     38.39074694	    -17.21705042	     -5.57578489	     72.03738969	     44.95376203	      0.00000000	      0.00000000	     -4.37535671	     -6.37814493	     -0.33420563	     20.94733418	     44.57092952	      0.00000000	      0.00000000
     30.56571429	     -4.04495214	     -6.23736036	      2.62412294	      0.92572295	      0.92838589	      0.51928818	      1.63300140	      7.16365528	    -20.72279360	      6.58652018	      6.58652018	     11.05666800	      7.23656801	     -7.26933493	     33.47251744	    -10.93728501	     -3.50199464	     17.61240513	     17.61240513	      7.42362421	     -6.06102060	     11.34623644	     -8.56085131	      7.61418561	      4.33433758	     39.22916469	    -16.95194582	     -6.19394068	     73.19961729	     44.95983786	      0.00000000	      0.00000000	     -5.97603937	     -6.60122344	      0.36025282	     22.26531518	     44.40633695	      0.00000000	      0.00000000
